<svg id="Camada_1" data-name="Camada 1" xmlns="http://www.w3.org/2000/svg" xmlns:xlink="http://www.w3.org/1999/xlink" viewBox="0 0 36 36"><defs><style>.cls-1{fill:none;}.cls-2{clip-path:url(#clip-path);}.cls-3{fill:#8ccaae;}</style><clipPath id="clip-path"><rect class="cls-1" x="11.91" y="6.76" width="14.18" height="22.48"/></clipPath></defs><g id="Grupo_429" data-name="Grupo 429"><g class="cls-2"><g id="Grupo_428" data-name="Grupo 428"><g id="Grupo_427" data-name="Grupo 427"><path id="Caminho_760" data-name="Caminho 760" class="cls-3" d="M26.09,18a3.55,3.55,0,1,0-3.55,3.54A3.54,3.54,0,0,0,26.09,18M19,10.31a3.55,3.55,0,0,0-3.54-3.55h0a3.55,3.55,0,1,0,0,7.09h0A3.55,3.55,0,0,0,19,10.31M11.91,25.69a3.55,3.55,0,1,0,7.09,0h0a3.55,3.55,0,0,0-7.09,0"/></g></g></g></g></svg>