<svg id="Camada_1" data-name="Camada 1" xmlns="http://www.w3.org/2000/svg" xmlns:xlink="http://www.w3.org/1999/xlink" viewBox="0 0 40 40"><defs><style>.cls-1{fill:none;}.cls-2{clip-path:url(#clip-path);}.cls-3,.cls-4{fill:#c8d300;}.cls-3{stroke:#c8d300;stroke-linecap:round;stroke-linejoin:round;}</style><clipPath id="clip-path"><rect class="cls-1" x="1.5" width="37.46" height="40"/></clipPath></defs><g class="cls-2"><line class="cls-3" x1="5.43" y1="0.98" x2="5.43" y2="39.02"/><line class="cls-3" x1="25.16" y1="0.98" x2="25.16" y2="39.02"/><line class="cls-3" x1="15.29" y1="0.98" x2="15.29" y2="39.02"/><line class="cls-3" x1="35.03" y1="0.98" x2="35.03" y2="39.02"/><path class="cls-4" d="M5.43,13.56A3.93,3.93,0,1,0,1.5,9.63a3.93,3.93,0,0,0,3.93,3.93"/><path class="cls-4" d="M25.16,24.31a3.93,3.93,0,1,0-3.92-3.93,3.92,3.92,0,0,0,3.92,3.93"/><path class="cls-4" d="M15.29,24.31a3.93,3.93,0,1,0-3.92-3.93,3.92,3.92,0,0,0,3.92,3.93"/><path class="cls-4" d="M5.43,35.06A3.93,3.93,0,1,0,1.5,31.14a3.92,3.92,0,0,0,3.93,3.92"/><path class="cls-4" d="M25.16,35.06a3.93,3.93,0,1,0-3.92-3.92,3.92,3.92,0,0,0,3.92,3.92"/><path class="cls-4" d="M15.29,35.06a3.93,3.93,0,1,0-3.92-3.92,3.92,3.92,0,0,0,3.92,3.92"/><path class="cls-4" d="M35,35.06a3.93,3.93,0,1,0-3.92-3.92A3.92,3.92,0,0,0,35,35.06"/><path class="cls-4" d="M15.29,13.56a3.93,3.93,0,1,0-3.92-3.93,3.93,3.93,0,0,0,3.92,3.93"/><path class="cls-4" d="M35,13.56a3.93,3.93,0,1,0-3.92-3.93A3.93,3.93,0,0,0,35,13.56"/></g></svg>